<svg width="112" height="112" viewBox="0 0 112 112" fill="none" xmlns="http://www.w3.org/2000/svg">
<rect width="112" height="112" rx="20" fill="white"/>
<g clip-path="url(#clip0_206_30)">
<path d="M27.0264 41.0996H5V72.6243H27.0264V41.0996Z" fill="#0371FF"/>
<path d="M87.5307 82.6823L76.1914 71.6807H88.222V82.6823V84.0506L87.5307 82.6823Z" fill="#F78700"/>
<path d="M23.2147 72.624H5V71.4601H5.0231V70.7368H22.6425L23.2147 72.624Z" fill="#0371FF"/>
<path d="M100.786 42.3061L96.3737 33.6075L90.2376 31.603L73.1016 26L75.9448 31.603L78.1519 35.9745L78.5073 35.5498L79.4758 35.9745C86.4746 39.1369 92.422 44.2364 96.6154 50.6706L97.1822 51.5592L96.8268 51.9803L100.783 53.2776V56.8743C101.689 55.538 102.362 54.4522 102.656 53.9759C102.668 53.9505 102.678 53.9237 102.684 53.896L107.446 55.4527L100.786 42.3061Z" fill="#F78700"/>
<path d="M97.1147 59.8137C96.9142 59.6414 96.756 59.4254 96.6522 59.1823C96.5483 58.9392 96.5017 58.6756 96.5158 58.4116C95.4318 59.3428 94.2057 60.1265 92.9049 60.4925C92.8577 60.5047 92.8144 60.5288 92.7793 60.5626C92.7442 60.5963 92.7185 60.6386 92.7045 60.6853C92.6906 60.7319 92.6889 60.7814 92.6997 60.8289C92.7106 60.8764 92.7335 60.9203 92.7663 60.9563C93.1483 61.3722 93.6192 62.1043 93.1075 62.8436C92.5561 63.6258 92.2714 64.5648 92.2953 65.5216C92.2966 65.5691 92.3098 65.6155 92.3338 65.6565C92.3578 65.6975 92.3917 65.7319 92.4324 65.7563C92.4732 65.7808 92.5194 65.7945 92.5669 65.7964C92.6144 65.7982 92.6616 65.788 92.7041 65.7668C94.4811 64.8783 96.562 62.5681 98.3746 60.2242C98.1479 60.2422 97.9199 60.2152 97.7037 60.1447C97.4874 60.0743 97.2873 59.9618 97.1147 59.8137Z" fill="#F78700"/>
<path d="M95.4367 51.1503C93.5996 48.3104 91.3813 45.7364 88.8438 43.5001C88.6661 43.3348 88.4884 43.1838 88.3107 43.0221C88.133 42.8604 87.9553 42.7111 87.7581 42.5654C85.1583 40.3943 82.2697 38.5948 79.175 37.2183L75.2246 41.8386C75.2246 41.8386 76.0136 42.9794 77.4708 44.6641C79.5908 47.1182 83.1342 50.7344 87.7314 53.6737C88.9369 54.4508 90.1885 55.154 91.4792 55.7795L94.0985 52.7212L95.4367 51.1503Z" fill="#F78700"/>
<path d="M98.1807 56.7658C98.509 56.7531 98.8342 56.8347 99.1176 57.001C99.401 57.1672 99.6309 57.4112 99.78 57.704H100.205C100.407 57.4162 100.601 57.1336 100.78 56.86V53.2686C100.014 54.5052 99.144 55.6751 98.1807 56.7658Z" fill="#F78700"/>
<path d="M99.1525 57.7097C99.1168 57.6624 99.0756 57.6194 99.0299 57.5817C98.7876 57.3735 98.4725 57.2699 98.154 57.2939C97.8354 57.3179 97.5394 57.4675 97.331 57.7097C97.2394 57.8142 97.1677 57.9347 97.1196 58.0651C97.0314 58.2965 97.0171 58.5495 97.0785 58.7894C97.1399 59.0293 97.274 59.2444 97.4625 59.405C97.6245 59.5436 97.8202 59.6372 98.0298 59.6762C98.2395 59.7152 98.4557 59.6982 98.6567 59.6271C98.8822 59.5459 99.0783 59.3991 99.2198 59.2056C99.3614 59.0122 99.4419 58.7809 99.451 58.5413C99.4634 58.2359 99.3563 57.9376 99.1525 57.7097Z" fill="#0371FF"/>
<path d="M73.4711 41.0996H5.02666V71.2169H5V72.0326H6.77349V71.3715H6.80014V42.4235H73.4711V41.0996Z" fill="#0371FF"/>
<path d="M89.0472 60.0908V86.0001L87.16 84.1129L75.6714 72.6243H20.2988L22.5041 70.7513V70.7371H76.4515L87.16 81.4455V60.0908H89.0472Z" fill="#0371FF"/>
<path d="M33.8142 49.1458H38.2408C37.6414 49.7465 37.1154 50.6403 36.6628 51.8274C36.2103 53.0144 35.984 54.4313 35.984 56.0781C35.984 57.9605 36.266 59.6156 36.8299 61.0431C37.3938 62.4707 38.152 63.185 39.1045 63.1862C39.3272 63.1862 39.7235 62.9303 40.2933 62.4185C40.8632 61.9068 41.3898 61.1278 41.8731 60.0817C42.3553 59.0345 42.5964 57.7467 42.5964 56.2185C42.607 55.1912 42.3485 54.1791 41.8465 53.2828C41.3477 52.3943 40.7334 51.95 40.0037 51.95C39.846 51.9627 39.6982 52.0322 39.5878 52.1455C39.4002 52.3174 39.2222 52.4995 39.0547 52.691C39.1853 51.9676 39.4903 51.2869 39.9432 50.7078C40.4242 50.0539 40.8886 49.7275 41.3364 49.7287C41.9371 49.7287 42.6751 50.3021 43.5506 51.4489C44.4119 52.5542 44.8746 53.918 44.8639 55.3193C44.8639 56.9316 44.1495 58.7336 42.7208 60.725C41.292 62.7165 39.8491 63.7134 38.3919 63.7158C36.8151 63.7158 35.6505 63.0304 34.8982 61.6598C34.1459 60.2891 33.7698 58.6696 33.7698 56.8013C33.7542 55.4826 34.0062 54.1743 34.5108 52.9558C35.0066 51.7835 35.6434 50.676 36.4069 49.6576H34.0435C32.7403 49.6576 31.6409 49.984 30.7453 50.6368C30.3214 50.9271 29.9767 51.3189 29.7427 51.7763C29.5087 52.2338 29.3928 52.7424 29.4054 53.2561C29.4272 54.143 29.6716 55.0101 30.1162 55.7777C30.5901 56.6485 31.4306 57.4304 32.6378 58.1234C32.0927 58.1407 31.5498 58.0472 31.0419 57.8487C30.5339 57.6501 30.0715 57.3507 29.6826 56.9684C28.9007 56.1983 28.5098 55.2138 28.5098 54.0149C28.5098 52.4748 29.0476 51.2783 30.1233 50.4253C31.1682 49.584 32.4728 49.1317 33.8142 49.1458Z" fill="#003268"/>
<path d="M47.5546 52.9914C47.7098 52.9782 47.8654 53.0114 48.0017 53.0867C48.138 53.162 48.249 53.276 48.3205 53.4144C48.4744 53.7268 48.55 54.072 48.5409 54.4202V59.3763C48.5888 59.7051 48.7186 59.8703 48.9123 59.8703C49.0978 59.851 49.2717 59.7703 49.4063 59.6411L49.7759 59.3408C49.5599 59.7412 49.2699 60.097 48.9211 60.3892C48.6406 60.6049 48.2958 60.7201 47.942 60.7162C47.7961 60.7187 47.652 60.6847 47.5226 60.6174C47.3932 60.5501 47.2826 60.4515 47.201 60.3306C47.0102 60.0641 46.9111 59.743 46.9184 59.4154V54.2247C46.9184 54.0026 46.8367 53.8906 46.6714 53.8906C46.4493 53.8906 46.101 54.0914 45.6318 54.4912C45.6911 54.2673 45.9322 53.9617 46.3551 53.5743C46.778 53.1869 47.1779 52.9926 47.5546 52.9914ZM47.7838 49.1459C47.9228 49.1435 48.0607 49.1706 48.1885 49.2254C48.3162 49.2803 48.4309 49.3616 48.5249 49.464C48.7334 49.7018 48.8406 50.0118 48.8234 50.3276C48.8277 50.522 48.7807 50.714 48.6871 50.8843C48.5935 51.0547 48.4566 51.1973 48.2903 51.2979C48.0137 51.5069 47.682 51.6305 47.336 51.6533C47.2139 51.6521 47.0951 51.6132 46.9959 51.5419C46.8966 51.4707 46.8218 51.3706 46.7816 51.2552C46.6546 50.9636 46.594 50.6474 46.6039 50.3294C46.6039 49.8828 46.7093 49.5742 46.9202 49.4036C47.1697 49.2207 47.4748 49.1296 47.7838 49.1459Z" fill="#003268"/>
<path d="M51.9989 52.9558C52.4443 52.9558 52.7174 53.1145 52.8181 53.432C52.916 53.7532 52.9757 54.0849 52.9958 54.42V61.4571C53.0052 62.7718 52.517 64.0414 51.6293 65.0112C50.7182 66.0454 49.7983 66.5632 48.8695 66.5643C47.9751 66.5643 47.3697 66.1793 47.0534 65.4093C46.7371 64.6392 46.5783 63.6482 46.5771 62.4363C46.8935 63.3651 47.3164 64.0883 47.846 64.606C48.1178 64.866 48.4391 65.0687 48.7907 65.2021C49.1424 65.3355 49.5173 65.3969 49.8931 65.3826C50.5275 65.3826 50.9327 65.0929 51.1086 64.5172C51.3044 63.7936 51.3936 63.0453 51.3734 62.2959V54.2086C51.3734 53.974 51.2863 53.8532 51.1086 53.8532C50.9309 53.8532 50.6146 53.99 50.1917 54.2601C50.4091 53.949 50.6535 53.6576 50.922 53.3894C51.0618 53.2465 51.2296 53.1343 51.415 53.0596C51.6003 52.985 51.7992 52.9496 51.9989 52.9558ZM52.1037 49.1458C52.2428 49.1432 52.3808 49.1702 52.5085 49.225C52.6363 49.2799 52.7509 49.3613 52.8448 49.4639C53.0546 49.701 53.1626 50.0113 53.1451 50.3275C53.1496 50.5219 53.1026 50.714 53.009 50.8843C52.9154 51.0547 52.7784 51.1973 52.612 51.2978C52.3364 51.5074 52.005 51.631 51.6595 51.6532C51.5371 51.6521 51.418 51.6132 51.3185 51.542C51.219 51.4708 51.1438 51.3706 51.1033 51.2551C50.9772 50.9632 50.9165 50.6472 50.9256 50.3293C50.9256 49.8827 51.0316 49.5741 51.2437 49.4035C51.4921 49.2211 51.7959 49.1301 52.1037 49.1458Z" fill="#003268"/>
<path d="M60.2179 53.0805V59.6094C60.2286 59.7622 60.305 59.8386 60.4472 59.8386C60.5805 59.8311 60.7102 59.7921 60.8257 59.7249C60.9726 59.6491 61.2095 59.5164 61.5365 59.3268C61.3485 59.6879 61.0877 60.0062 60.7706 60.2616C60.4922 60.5327 60.126 60.6954 59.7381 60.72C59.5498 60.72 59.3063 60.5921 59.006 60.3326C58.8574 60.2042 58.7398 60.0438 58.6619 59.8635C58.584 59.6831 58.548 59.4875 58.5564 59.2913V58.3388C57.8385 59.0567 57.2331 59.6331 56.7403 60.0679C56.2474 60.5026 55.8186 60.7188 55.4537 60.7165C55.0544 60.7165 54.699 60.4795 54.3875 60.0057C54.0759 59.5318 53.9207 58.9027 53.9219 58.1184C53.9219 56.5203 54.3626 55.2799 55.244 54.3973C56.1254 53.5147 57.2716 53.074 58.6826 53.0752L60.2179 53.0805ZM55.6136 56.7839C55.6136 57.3596 55.7078 57.7832 55.8962 58.0545C55.9796 58.1833 56.095 58.2884 56.2311 58.3594C56.3672 58.4304 56.5193 58.4649 56.6727 58.4596C56.9918 58.4498 57.3035 58.3619 57.5808 58.2037C57.9341 58.0119 58.2629 57.778 58.56 57.5071V53.5674C58.1532 53.5548 57.749 53.6364 57.3791 53.806C57.0091 53.9755 56.6834 54.2284 56.4275 54.5448C55.8957 55.169 55.6067 55.9639 55.6136 56.7839Z" fill="#003268"/>
<path d="M68.2789 52.6909C68.4554 52.6909 68.7373 52.9379 69.1247 53.4319C69.4953 53.8784 69.7011 54.4387 69.7076 55.0188C69.7076 55.3008 69.2823 56.1946 68.4317 57.7004C67.5811 59.2061 66.9431 60.3908 66.5178 61.2545C66.0913 62.1181 65.8787 62.8971 65.8799 63.5913C65.8745 64.1501 66.0517 64.6955 66.3845 65.1444C66.5327 65.3595 66.7317 65.5345 66.964 65.6539C67.1963 65.7733 67.4544 65.8333 67.7155 65.8286C68.1037 65.8535 68.4862 65.726 68.7818 65.4732C69.0353 65.2362 69.2924 64.8103 69.553 64.1955C69.553 65.0994 69.2859 65.7166 68.7516 66.0472C68.1934 66.3801 67.5533 66.5506 66.9034 66.5394C65.9853 66.5394 65.3148 66.3895 64.8918 66.0898C64.4689 65.7901 64.2574 65.2516 64.2574 64.4745C64.2652 63.8258 64.4575 63.1928 64.8119 62.6494C65.1838 62.0571 65.7045 61.3196 66.3739 60.437L65.4996 58.4965C65.13 57.6743 64.7218 56.8569 64.2752 56.0442C63.8274 55.2339 63.5306 54.8003 63.3867 54.7754C63.2571 54.742 63.1241 54.7241 62.9904 54.7221C62.6993 54.7237 62.4116 54.7842 62.1445 54.8998C61.8515 55.0223 61.5682 55.1666 61.2969 55.3316C61.6665 54.7668 62.0889 54.2384 62.5586 53.7536C63.0573 53.2288 63.5069 52.967 63.9073 52.9681C64.4476 52.9681 65.1092 53.7974 65.8923 55.456C66.6754 57.1146 67.2132 58.1458 67.5059 58.5498C67.7078 58.1804 67.8905 57.8008 68.0532 57.4125C68.2261 57.0087 68.3156 56.5741 68.3162 56.1348C68.3323 55.6986 68.2077 55.2687 67.9608 54.9087C67.6842 54.5455 67.3163 54.2622 66.8946 54.0877C67.0711 53.7714 67.2648 53.4568 67.4756 53.1441C67.5601 53.0066 67.6781 52.8928 67.8186 52.8136C67.9591 52.7343 68.1175 52.6921 68.2789 52.6909Z" fill="#003268"/>
<path d="M71.9999 52.9914C72.1553 52.9786 72.311 53.0119 72.4475 53.0871C72.5841 53.1623 72.6954 53.2761 72.7676 53.4143C72.9207 53.7271 72.9963 54.072 72.9879 54.4201V59.3763C73.0341 59.705 73.1656 59.8703 73.3576 59.8703C73.5432 59.851 73.717 59.7703 73.8516 59.6411L74.2212 59.3408C74.0058 59.7416 73.7157 60.0975 73.3665 60.3892C73.086 60.6049 72.7411 60.7201 72.3873 60.7162C72.2414 60.7187 72.0973 60.6847 71.9679 60.6174C71.8385 60.55 71.7279 60.4515 71.6463 60.3306C71.4561 60.064 71.3575 59.7428 71.3655 59.4154V54.2247C71.3655 54.0025 71.282 53.8906 71.1185 53.8906C70.8946 53.8906 70.5475 54.0908 70.0771 54.4912C70.1364 54.2673 70.3775 53.9617 70.8004 53.5743C71.2233 53.1869 71.6232 52.9926 71.9999 52.9914ZM72.2292 49.1459C72.3681 49.1435 72.5061 49.1706 72.6338 49.2254C72.7615 49.2802 72.8762 49.3615 72.9702 49.464C73.1787 49.7018 73.2859 50.0118 73.2687 50.3276C73.273 50.5219 73.226 50.7139 73.1324 50.8843C73.0388 51.0546 72.9019 51.1973 72.7356 51.2979C72.4598 51.5072 72.1286 51.6308 71.7831 51.6533C71.6607 51.6522 71.5417 51.6133 71.4421 51.5421C71.3426 51.4709 71.2674 51.3707 71.2269 51.2552C71.1008 50.9633 71.0401 50.6473 71.0492 50.3294C71.0492 49.8833 71.154 49.5741 71.3673 49.4035C71.6162 49.2208 71.9207 49.1297 72.2292 49.1459Z" fill="#003268"/>
<path d="M80.9417 59.5168C80.9417 59.7763 81.0305 59.906 81.21 59.906C81.447 59.906 81.7751 59.7117 82.1945 59.3231C81.9873 59.7339 81.6822 60.0872 81.306 60.352C81.0332 60.5656 80.7027 60.6925 80.357 60.7163C80.2175 60.7226 80.0781 60.7001 79.9476 60.6503C79.817 60.6005 79.6981 60.5244 79.5982 60.4267C79.4943 60.3048 79.4155 60.1635 79.3664 60.011C79.3173 59.8585 79.2988 59.6978 79.3121 59.5382V55.5825C79.32 55.3644 79.2894 55.1466 79.2215 54.9392C79.1629 54.781 78.9958 54.7028 78.7222 54.7028C78.4485 54.7028 78.0291 55.012 77.5404 55.6287C77.0517 56.2453 76.8065 56.6078 76.8065 56.7127V59.6981C76.7479 59.9451 76.5488 60.1761 76.2041 60.3911C75.9023 60.5952 75.5482 60.7081 75.1841 60.7163V54.7011C75.1841 54.5233 75.113 54.4203 74.9726 54.4203C74.7961 54.4203 74.4608 54.579 73.9668 54.8965C74.3326 54.4173 74.7405 53.9719 75.1858 53.5655C75.5531 53.2421 75.8422 53.0804 76.053 53.0804C76.38 53.0804 76.5873 53.2581 76.675 53.6135C76.7801 54.1626 76.8242 54.7216 76.8065 55.2804V55.9343C77.2422 55.2448 77.7268 54.5874 78.2566 53.9671C78.7648 53.3748 79.2979 53.0786 79.8559 53.0786C80.2895 53.0786 80.5756 53.2243 80.716 53.5193C80.879 53.9402 80.951 54.3907 80.9275 54.8414V59.5151L80.9417 59.5168Z" fill="#003268"/>
<path d="M14.3779 50.8252V62.5803H10.9678V50.8252H14.3779Z" fill="white"/>
<path d="M16.2451 62.5803V50.8252C16.7569 50.8252 17.8048 50.7659 19.3887 50.6475V54.8253C19.9751 54.0612 20.6267 53.6791 21.3434 53.6791C23.3989 53.6791 24.4266 55.1007 24.4266 57.944C24.4266 61.1592 23.204 62.7669 20.7588 62.7669C19.6049 62.7669 18.6204 62.2243 17.8054 61.1391L17.0288 62.5767L16.2451 62.5803ZM20.3714 54.939C19.6772 54.939 19.3295 55.946 19.3283 57.96C19.3283 60.3294 19.6671 61.5141 20.3448 61.5141C20.9371 61.5141 21.2333 60.8968 21.2333 59.6624L21.2848 57.5299L21.2244 56.3322C21.132 55.4058 20.8477 54.9426 20.3714 54.9426V54.939Z" fill="white"/>
<path d="M73.4711 41.0996H5V43.0206H73.4711V41.0996Z" fill="#0371FF"/>
</g>
<defs>
<clipPath id="clip0_206_30">
<rect width="102.45" height="60" fill="white" transform="translate(5 26)"/>
</clipPath>
</defs>
</svg>
