<svg width="200" height="200" viewBox="0 0 200 200" fill="none" xmlns="http://www.w3.org/2000/svg">
<path d="M187.375 77.5179C184.009 74 180.527 70.375 179.214 67.1875C178 64.2679 177.929 59.4286 177.857 54.7411C177.723 46.0268 177.58 36.1518 170.714 29.2857C163.848 22.4196 153.973 22.2768 145.259 22.1429C140.571 22.0714 135.732 22 132.812 20.7857C129.634 19.4732 126 15.9911 122.482 12.625C116.321 6.70536 109.321 0 100 0C90.6786 0 83.6875 6.70536 77.5179 12.625C74 15.9911 70.375 19.4732 67.1875 20.7857C64.2857 22 59.4286 22.0714 54.7411 22.1429C46.0268 22.2768 36.1518 22.4196 29.2857 29.2857C22.4196 36.1518 22.3214 46.0268 22.1429 54.7411C22.0714 59.4286 22 64.2679 20.7857 67.1875C19.4732 70.3661 15.9911 74 12.625 77.5179C6.70536 83.6786 0 90.6786 0 100C0 109.321 6.70536 116.312 12.625 122.482C15.9911 126 19.4732 129.625 20.7857 132.812C22 135.732 22.0714 140.571 22.1429 145.259C22.2768 153.973 22.4196 163.848 29.2857 170.714C36.1518 177.58 46.0268 177.723 54.7411 177.857C59.4286 177.929 64.2679 178 67.1875 179.214C70.3661 180.527 74 184.009 77.5179 187.375C83.6786 193.295 90.6786 200 100 200C109.321 200 116.312 193.295 122.482 187.375C126 184.009 129.625 180.527 132.812 179.214C135.732 178 140.571 177.929 145.259 177.857C153.973 177.723 163.848 177.58 170.714 170.714C177.58 163.848 177.723 153.973 177.857 145.259C177.929 140.571 178 135.732 179.214 132.812C180.527 129.634 184.009 126 187.375 122.482C193.295 116.321 200 109.321 200 100C200 90.6786 193.295 83.6875 187.375 77.5179ZM140.768 83.625L90.7679 133.625C90.1045 134.289 89.3167 134.816 88.4496 135.175C87.5824 135.535 86.653 135.72 85.7143 135.72C84.7756 135.72 83.8461 135.535 82.979 135.175C82.1119 134.816 81.3241 134.289 80.6607 133.625L59.2321 112.196C58.5685 111.533 58.0421 110.745 57.6829 109.878C57.3237 109.011 57.1389 108.081 57.1389 107.143C57.1389 106.204 57.3237 105.275 57.6829 104.408C58.0421 103.541 58.5685 102.753 59.2321 102.089C60.5724 100.749 62.3903 99.996 64.2857 99.996C65.2242 99.996 66.1536 100.181 67.0207 100.54C67.8878 100.899 68.6756 101.426 69.3393 102.089L85.7143 118.473L130.661 73.5179C131.324 72.8542 132.112 72.3278 132.979 71.9686C133.846 71.6095 134.776 71.4246 135.714 71.4246C136.653 71.4246 137.582 71.6095 138.449 71.9686C139.316 72.3278 140.104 72.8542 140.768 73.5179C141.432 74.1815 141.958 74.9694 142.317 75.8365C142.676 76.7035 142.861 77.6329 142.861 78.5714C142.861 79.51 142.676 80.4393 142.317 81.3064C141.958 82.1735 141.432 82.9614 140.768 83.625Z" fill="#0371FF"/>
</svg>
